<svg width="733" height="496" viewBox="0 0 733 496" fill="none" xmlns="http://www.w3.org/2000/svg">
<g clip-path="url(#clip0_363_547)">
<rect width="733" height="496" fill="white"/>
<rect width="733" height="496" fill="#F06A6A"/>
<rect x="329" y="69" width="201" height="84" rx="42" fill="#444242"/>
<rect x="337.139" y="128.701" width="127.569" height="62.3207" rx="31.1604" transform="rotate(-37.5235 337.139 128.701)" fill="#C4C4C4"/>
<rect x="375.093" y="139.596" width="127.569" height="62.3207" rx="31.1604" transform="rotate(-37.5235 375.093 139.596)" fill="white"/>
<circle cx="179.847" cy="164.707" r="56.7627" transform="rotate(-1.59573 179.847 164.707)" fill="#C4C4C4"/>
<path d="M120.227 50.5566L123.47 166.97L218.379 122.902L120.227 50.5566Z" fill="#C4C4C4"/>
<circle cx="213.24" cy="139.786" r="56.7627" transform="rotate(-20.2586 213.24 139.786)" fill="white"/>
<path d="M120.227 50.7168L160.551 159.971L236.368 87.8499L120.227 50.7168Z" fill="white"/>
<path d="M235.656 356.724C231.46 327.917 251.412 301.163 280.219 296.967L304.681 293.405V293.405C308.877 322.212 288.926 348.966 260.119 353.161L235.656 356.724V356.724Z" fill="#444242"/>
<path d="M257.658 314.475L278.816 341.278L245.024 346.2L257.658 314.475Z" fill="#F06A6A"/>
<path d="M285.284 335.83L263.902 309.205L297.651 304L285.284 335.83Z" fill="#F06A6A"/>
<mask id="mask0_363_547" style="mask-type:alpha" maskUnits="userSpaceOnUse" x="243" y="308" width="23" height="39">
<path d="M244.275 337.301C242.817 327.288 247.499 317.797 255.48 312.644L257.132 314.697L245.302 344.352L244.275 337.301Z" fill="#FF4646" stroke="black"/>
</mask>
<g mask="url(#mask0_363_547)">
<rect x="236.217" y="308.125" width="30.8497" height="45.1509" transform="rotate(-8.28678 236.217 308.125)" fill="#F06A6A"/>
</g>
<mask id="mask1_363_547" style="mask-type:alpha" maskUnits="userSpaceOnUse" x="277" y="303" width="23" height="39">
<path d="M298.87 313.04L297.545 303.943L285.052 335.581L287.163 338.222C295.462 333.067 300.368 323.326 298.87 313.04Z" fill="#FF4646"/>
</mask>
<g mask="url(#mask1_363_547)">
<rect x="306.603" y="342.031" width="30.8497" height="44.8854" transform="rotate(171.713 306.603 342.031)" fill="#F06A6A"/>
</g>
<g filter="url(#filter0_d_363_547)">
<path d="M244.667 273H238.808V244.562H244.667V273ZM251.367 253.293L248.71 251.75C249.83 249.992 250.41 248.176 250.449 246.301V243H254.941V246.027C254.941 247.199 254.615 248.469 253.964 249.836C253.313 251.203 252.447 252.355 251.367 253.293ZM263.828 251.867L264.003 254.23C265.501 252.395 267.526 251.477 270.078 251.477C272.799 251.477 274.667 252.551 275.683 254.699C277.167 252.551 279.283 251.477 282.031 251.477C284.322 251.477 286.028 252.147 287.148 253.488C288.268 254.816 288.828 256.822 288.828 259.504V273H283.164V259.523C283.164 258.326 282.929 257.453 282.46 256.906C281.992 256.346 281.165 256.066 279.98 256.066C278.287 256.066 277.115 256.874 276.464 258.488L276.484 273H270.839V259.543C270.839 258.319 270.598 257.434 270.117 256.887C269.635 256.34 268.815 256.066 267.656 256.066C266.054 256.066 264.895 256.73 264.179 258.059V273H258.535V251.867H263.828ZM319.57 267.141H309.296L307.343 273H301.113L311.699 244.562H317.128L327.773 273H321.542L319.57 267.141ZM310.878 262.395H317.988L314.414 251.75L310.878 262.395ZM340.39 273V244.562H349.14C351.64 244.562 353.873 245.129 355.839 246.262C357.819 247.382 359.361 248.983 360.468 251.066C361.575 253.137 362.128 255.493 362.128 258.137V259.445C362.128 262.089 361.582 264.439 360.488 266.496C359.407 268.553 357.877 270.148 355.898 271.281C353.919 272.414 351.686 272.987 349.199 273H340.39ZM346.25 249.309V268.293H349.082C351.373 268.293 353.125 267.544 354.335 266.047C355.546 264.549 356.165 262.408 356.191 259.621V258.117C356.191 255.227 355.592 253.039 354.394 251.555C353.196 250.057 351.445 249.309 349.14 249.309H346.25ZM375.761 273.391C372.662 273.391 370.136 272.44 368.183 270.539C366.243 268.638 365.273 266.105 365.273 262.941V262.395C365.273 260.272 365.683 258.378 366.503 256.711C367.324 255.031 368.483 253.742 369.98 252.844C371.49 251.932 373.209 251.477 375.136 251.477C378.027 251.477 380.299 252.388 381.953 254.211C383.619 256.034 384.453 258.618 384.453 261.965V264.27H370.996C371.178 265.65 371.725 266.757 372.636 267.59C373.561 268.423 374.726 268.84 376.132 268.84C378.307 268.84 380.006 268.052 381.23 266.477L384.003 269.582C383.157 270.78 382.011 271.717 380.566 272.395C379.121 273.059 377.519 273.391 375.761 273.391ZM375.117 256.047C373.997 256.047 373.085 256.424 372.382 257.18C371.692 257.935 371.25 259.016 371.054 260.422H378.906V259.973C378.88 258.723 378.541 257.759 377.89 257.082C377.239 256.392 376.315 256.047 375.117 256.047ZM399.121 267.16C399.121 266.47 398.776 265.93 398.085 265.539C397.408 265.135 396.315 264.777 394.804 264.465C389.778 263.41 387.265 261.275 387.265 258.059C387.265 256.184 388.04 254.621 389.589 253.371C391.152 252.108 393.19 251.477 395.703 251.477C398.385 251.477 400.527 252.108 402.128 253.371C403.743 254.634 404.55 256.275 404.55 258.293H398.906C398.906 257.486 398.645 256.822 398.125 256.301C397.604 255.767 396.79 255.5 395.683 255.5C394.733 255.5 393.997 255.715 393.476 256.145C392.955 256.574 392.695 257.121 392.695 257.785C392.695 258.41 392.988 258.918 393.574 259.309C394.173 259.686 395.175 260.018 396.582 260.305C397.988 260.578 399.173 260.891 400.136 261.242C403.118 262.336 404.609 264.23 404.609 266.926C404.609 268.853 403.782 270.415 402.128 271.613C400.475 272.798 398.339 273.391 395.722 273.391C393.951 273.391 392.376 273.078 390.996 272.453C389.628 271.815 388.554 270.949 387.773 269.855C386.992 268.749 386.601 267.557 386.601 266.281H391.953C392.005 267.284 392.376 268.052 393.066 268.586C393.756 269.12 394.681 269.387 395.839 269.387C396.92 269.387 397.734 269.185 398.281 268.781C398.841 268.365 399.121 267.824 399.121 267.16ZM414.218 273H408.554V251.867H414.218V273ZM408.222 246.398C408.222 245.552 408.502 244.855 409.062 244.309C409.635 243.762 410.41 243.488 411.386 243.488C412.35 243.488 413.118 243.762 413.691 244.309C414.264 244.855 414.55 245.552 414.55 246.398C414.55 247.258 414.257 247.961 413.671 248.508C413.098 249.055 412.337 249.328 411.386 249.328C410.436 249.328 409.667 249.055 409.082 248.508C408.509 247.961 408.222 247.258 408.222 246.398ZM418.066 262.277C418.066 259.035 418.834 256.424 420.371 254.445C421.92 252.466 424.003 251.477 426.621 251.477C428.938 251.477 430.742 252.271 432.031 253.859L432.265 251.867H437.382V272.297C437.382 274.146 436.959 275.754 436.113 277.121C435.279 278.488 434.101 279.53 432.578 280.246C431.054 280.962 429.27 281.32 427.226 281.32C425.677 281.32 424.166 281.008 422.695 280.383C421.223 279.771 420.11 278.977 419.355 278L421.855 274.562C423.261 276.138 424.967 276.926 426.972 276.926C428.47 276.926 429.635 276.522 430.468 275.715C431.302 274.921 431.718 273.788 431.718 272.316V271.184C430.416 272.655 428.704 273.391 426.582 273.391C424.042 273.391 421.985 272.401 420.41 270.422C418.847 268.43 418.066 265.793 418.066 262.512V262.277ZM423.71 262.688C423.71 264.602 424.095 266.105 424.863 267.199C425.631 268.28 426.686 268.82 428.027 268.82C429.746 268.82 430.976 268.176 431.718 266.887V258C430.963 256.711 429.746 256.066 428.066 256.066C426.712 256.066 425.644 256.62 424.863 257.727C424.095 258.833 423.71 260.487 423.71 262.688ZM446.933 251.867L447.109 254.309C448.619 252.421 450.644 251.477 453.183 251.477C455.423 251.477 457.089 252.134 458.183 253.449C459.277 254.764 459.837 256.73 459.863 259.348V273H454.218V259.484C454.218 258.286 453.958 257.421 453.437 256.887C452.916 256.34 452.05 256.066 450.839 256.066C449.251 256.066 448.059 256.743 447.265 258.098V273H441.621V251.867H446.933ZM473.886 273.391C470.787 273.391 468.261 272.44 466.308 270.539C464.368 268.638 463.398 266.105 463.398 262.941V262.395C463.398 260.272 463.808 258.378 464.628 256.711C465.449 255.031 466.608 253.742 468.105 252.844C469.615 251.932 471.334 251.477 473.261 251.477C476.152 251.477 478.424 252.388 480.078 254.211C481.744 256.034 482.578 258.618 482.578 261.965V264.27H469.121C469.303 265.65 469.85 266.757 470.761 267.59C471.686 268.423 472.851 268.84 474.257 268.84C476.432 268.84 478.131 268.052 479.355 266.477L482.128 269.582C481.282 270.78 480.136 271.717 478.691 272.395C477.246 273.059 475.644 273.391 473.886 273.391ZM473.242 256.047C472.122 256.047 471.21 256.424 470.507 257.18C469.817 257.935 469.375 259.016 469.179 260.422H477.031V259.973C477.005 258.723 476.666 257.759 476.015 257.082C475.364 256.392 474.44 256.047 473.242 256.047ZM497.675 257.16C496.907 257.056 496.23 257.004 495.644 257.004C493.509 257.004 492.109 257.727 491.445 259.172V273H485.8V251.867H491.132L491.289 254.387C492.421 252.447 493.99 251.477 495.996 251.477C496.621 251.477 497.207 251.561 497.753 251.73L497.675 257.16Z" fill="white"/>
</g>
<ellipse cx="583" cy="467" rx="176" ry="174" fill="white"/>
</g>
<defs>
<filter id="filter0_d_363_547" x="234.808" y="243" width="266.945" height="46.3203" filterUnits="userSpaceOnUse" color-interpolation-filters="sRGB">
<feFlood flood-opacity="0" result="BackgroundImageFix"/>
<feColorMatrix in="SourceAlpha" type="matrix" values="0 0 0 0 0 0 0 0 0 0 0 0 0 0 0 0 0 0 127 0" result="hardAlpha"/>
<feOffset dy="4"/>
<feGaussianBlur stdDeviation="2"/>
<feComposite in2="hardAlpha" operator="out"/>
<feColorMatrix type="matrix" values="0 0 0 0 0 0 0 0 0 0 0 0 0 0 0 0 0 0 0.25 0"/>
<feBlend mode="normal" in2="BackgroundImageFix" result="effect1_dropShadow_363_547"/>
<feBlend mode="normal" in="SourceGraphic" in2="effect1_dropShadow_363_547" result="shape"/>
</filter>
<clipPath id="clip0_363_547">
<rect width="733" height="496" fill="white"/>
</clipPath>
</defs>
</svg>
