<svg width="733" height="496" viewBox="0 0 733 496" fill="none" xmlns="http://www.w3.org/2000/svg">
<g clip-path="url(#clip0_368_845)">
<rect width="733" height="496" fill="#8FE372"/>
<path d="M128.795 266.641C119.89 236.453 77.11 236.453 68.2047 266.641L66.0484 273.972C64.7179 278.491 62.3926 282.656 59.2431 286.159C56.0937 289.663 52.1999 292.417 47.8474 294.22C43.4949 296.023 38.794 296.829 34.0895 296.579C29.385 296.329 24.7961 295.029 20.6594 292.774L13.975 289.109C-13.6897 274.058 -43.9419 304.31 -28.8697 331.953L-25.2256 338.659C-15.6087 356.341 -24.7297 378.356 -44.0281 384.048L-51.3594 386.205C-81.5469 395.11 -81.5469 437.89 -51.3594 446.795L-44.0281 448.952C-39.5087 450.282 -35.3445 452.607 -31.8407 455.757C-28.337 458.906 -25.5826 462.8 -23.7796 467.153C-21.9765 471.505 -21.1706 476.206 -21.4208 480.911C-21.671 485.615 -22.9711 490.204 -25.2256 494.341L-28.8912 501.025C-43.9419 528.69 -13.6897 558.942 13.9534 543.87L20.6594 540.226C24.7961 537.971 29.385 536.671 34.0895 536.421C38.794 536.171 43.4949 536.977 47.8474 538.78C52.1999 540.583 56.0937 543.337 59.2431 546.841C62.3926 550.344 64.7179 554.509 66.0484 559.028L68.2047 566.359C77.11 596.547 119.89 596.547 128.795 566.359L130.952 559.028C132.282 554.509 134.607 550.344 137.757 546.841C140.906 543.337 144.8 540.583 149.153 538.78C153.505 536.977 158.206 536.171 162.911 536.421C167.615 536.671 172.204 537.971 176.341 540.226L183.025 543.891C210.69 558.942 240.942 528.69 225.87 501.047L222.226 494.341C219.971 490.204 218.671 485.615 218.421 480.911C218.171 476.206 218.977 471.505 220.78 467.153C222.583 462.8 225.337 458.906 228.841 455.757C232.344 452.607 236.509 450.282 241.028 448.952L248.359 446.795C278.547 437.89 278.547 395.11 248.359 386.205L241.028 384.048C236.509 382.718 232.344 380.393 228.841 377.243C225.337 374.094 222.583 370.2 220.78 365.847C218.977 361.495 218.171 356.794 218.421 352.089C218.671 347.385 219.971 342.796 222.226 338.659L225.891 331.975C240.942 304.31 210.69 274.058 183.047 289.13L176.341 292.774C172.204 295.029 167.615 296.329 162.911 296.579C158.206 296.829 153.505 296.023 149.153 294.22C144.8 292.417 140.906 289.663 137.757 286.159C134.607 282.656 132.282 278.491 130.952 273.972L128.795 266.641ZM98.5 479.678C81.7441 479.678 65.6745 473.022 53.8263 461.174C41.9781 449.325 35.3219 433.256 35.3219 416.5C35.3219 399.744 41.9781 383.675 53.8263 371.826C65.6745 359.978 81.7441 353.322 98.5 353.322C115.25 353.322 131.314 359.976 143.158 371.82C155.003 383.664 161.657 399.728 161.657 416.478C161.657 433.229 155.003 449.293 143.158 461.137C131.314 472.981 115.25 479.635 98.5 479.635V479.678Z" fill="#444242" stroke="white" stroke-width="10"/>
<g filter="url(#filter0_d_368_845)">
<path d="M237.195 244H231.336V215.562H237.195V244ZM243.895 224.293L241.238 222.75C242.358 220.992 242.938 219.176 242.977 217.301V214H247.469V217.027C247.469 218.199 247.143 219.469 246.492 220.836C245.841 222.203 244.975 223.355 243.895 224.293ZM256.355 222.867L256.531 225.23C258.029 223.395 260.053 222.477 262.605 222.477C265.327 222.477 267.195 223.551 268.211 225.699C269.695 223.551 271.811 222.477 274.559 222.477C276.85 222.477 278.556 223.147 279.676 224.488C280.796 225.816 281.355 227.822 281.355 230.504V244H275.691V230.523C275.691 229.326 275.457 228.453 274.988 227.906C274.52 227.346 273.693 227.066 272.508 227.066C270.815 227.066 269.643 227.874 268.992 229.488L269.012 244H263.367V230.543C263.367 229.319 263.126 228.434 262.645 227.887C262.163 227.34 261.342 227.066 260.184 227.066C258.582 227.066 257.423 227.73 256.707 229.059V244H251.062V222.867H256.355ZM312.098 238.141H301.824L299.871 244H293.641L304.227 215.562H309.656L320.301 244H314.07L312.098 238.141ZM303.406 233.395H310.516L306.941 222.75L303.406 233.395ZM326.844 222.867L327.02 225.309C328.53 223.421 330.555 222.477 333.094 222.477C335.333 222.477 337 223.134 338.094 224.449C339.188 225.764 339.747 227.73 339.773 230.348V244H334.129V230.484C334.129 229.286 333.868 228.421 333.348 227.887C332.827 227.34 331.961 227.066 330.75 227.066C329.161 227.066 327.97 227.743 327.176 229.098V244H321.531V222.867H326.844ZM371.512 231.676H360.262V239.293H373.465V244H354.402V215.562H373.426V220.309H360.262V227.086H371.512V231.676ZM381.727 222.867L381.902 225.309C383.413 223.421 385.438 222.477 387.977 222.477C390.216 222.477 391.883 223.134 392.977 224.449C394.07 225.764 394.63 227.73 394.656 230.348V244H389.012V230.484C389.012 229.286 388.751 228.421 388.23 227.887C387.71 227.34 386.844 227.066 385.633 227.066C384.044 227.066 382.853 227.743 382.059 229.098V244H376.414V222.867H381.727Z" fill="white"/>
<path d="M398.133 233.277C398.133 230.035 398.901 227.424 400.438 225.445C401.987 223.466 404.07 222.477 406.688 222.477C409.005 222.477 410.809 223.271 412.098 224.859L412.332 222.867H417.449V243.297C417.449 245.146 417.026 246.754 416.18 248.121C415.346 249.488 414.168 250.53 412.645 251.246C411.121 251.962 409.337 252.32 407.293 252.32C405.743 252.32 404.233 252.008 402.762 251.383C401.29 250.771 400.177 249.977 399.422 249L401.922 245.562C403.328 247.138 405.034 247.926 407.039 247.926C408.536 247.926 409.702 247.522 410.535 246.715C411.368 245.921 411.785 244.788 411.785 243.316V242.184C410.483 243.655 408.771 244.391 406.648 244.391C404.109 244.391 402.052 243.401 400.477 241.422C398.914 239.43 398.133 236.793 398.133 233.512V233.277ZM403.777 233.688C403.777 235.602 404.161 237.105 404.93 238.199C405.698 239.28 406.753 239.82 408.094 239.82C409.812 239.82 411.043 239.176 411.785 237.887V229C411.03 227.711 409.812 227.066 408.133 227.066C406.779 227.066 405.711 227.62 404.93 228.727C404.161 229.833 403.777 231.487 403.777 233.688ZM427.762 244H422.098V222.867H427.762V244ZM421.766 217.398C421.766 216.552 422.046 215.855 422.605 215.309C423.178 214.762 423.953 214.488 424.93 214.488C425.893 214.488 426.661 214.762 427.234 215.309C427.807 215.855 428.094 216.552 428.094 217.398C428.094 218.258 427.801 218.961 427.215 219.508C426.642 220.055 425.88 220.328 424.93 220.328C423.979 220.328 423.211 220.055 422.625 219.508C422.052 218.961 421.766 218.258 421.766 217.398ZM437.625 222.867L437.801 225.309C439.311 223.421 441.336 222.477 443.875 222.477C446.115 222.477 447.781 223.134 448.875 224.449C449.969 225.764 450.529 227.73 450.555 230.348V244H444.91V230.484C444.91 229.286 444.65 228.421 444.129 227.887C443.608 227.34 442.742 227.066 441.531 227.066C439.943 227.066 438.751 227.743 437.957 229.098V244H432.312V222.867H437.625ZM464.578 244.391C461.479 244.391 458.953 243.44 457 241.539C455.06 239.638 454.09 237.105 454.09 233.941V233.395C454.09 231.272 454.5 229.378 455.32 227.711C456.141 226.031 457.299 224.742 458.797 223.844C460.307 222.932 462.026 222.477 463.953 222.477C466.844 222.477 469.116 223.388 470.77 225.211C472.436 227.034 473.27 229.618 473.27 232.965V235.27H459.812C459.995 236.65 460.542 237.757 461.453 238.59C462.378 239.423 463.543 239.84 464.949 239.84C467.124 239.84 468.823 239.052 470.047 237.477L472.82 240.582C471.974 241.78 470.828 242.717 469.383 243.395C467.938 244.059 466.336 244.391 464.578 244.391ZM463.934 227.047C462.814 227.047 461.902 227.424 461.199 228.18C460.509 228.935 460.066 230.016 459.871 231.422H467.723V230.973C467.697 229.723 467.358 228.759 466.707 228.082C466.056 227.392 465.132 227.047 463.934 227.047ZM486.219 244.391C483.12 244.391 480.594 243.44 478.641 241.539C476.701 239.638 475.73 237.105 475.73 233.941V233.395C475.73 231.272 476.141 229.378 476.961 227.711C477.781 226.031 478.94 224.742 480.438 223.844C481.948 222.932 483.667 222.477 485.594 222.477C488.484 222.477 490.757 223.388 492.41 225.211C494.077 227.034 494.91 229.618 494.91 232.965V235.27H481.453C481.635 236.65 482.182 237.757 483.094 238.59C484.018 239.423 485.184 239.84 486.59 239.84C488.764 239.84 490.464 239.052 491.688 237.477L494.461 240.582C493.615 241.78 492.469 242.717 491.023 243.395C489.578 244.059 487.977 244.391 486.219 244.391ZM485.574 227.047C484.454 227.047 483.543 227.424 482.84 228.18C482.15 228.935 481.707 230.016 481.512 231.422H489.363V230.973C489.337 229.723 488.999 228.759 488.348 228.082C487.697 227.392 486.772 227.047 485.574 227.047ZM510.008 228.16C509.24 228.056 508.562 228.004 507.977 228.004C505.841 228.004 504.441 228.727 503.777 230.172V244H498.133V222.867H503.465L503.621 225.387C504.754 223.447 506.323 222.477 508.328 222.477C508.953 222.477 509.539 222.561 510.086 222.73L510.008 228.16Z" fill="#444242"/>
</g>
<rect x="268.718" y="208.561" width="26.5801" height="7.75287" rx="3.87644" transform="rotate(-90 268.718 208.561)" fill="white"/>
<rect x="249.858" y="208.949" width="37.3663" height="7.75287" rx="3.87644" transform="rotate(-90 249.858 208.949)" fill="white"/>
<rect x="231" y="208.561" width="52.0046" height="7.75287" rx="3.87644" transform="rotate(-90 231 208.561)" fill="white"/>
<rect x="334.703" y="208.027" width="25.3696" height="7.75174" rx="3.87587" transform="rotate(-90 334.703 208.027)" fill="white"/>
<rect x="315.504" y="208.395" width="35.6645" height="7.75174" rx="3.87587" transform="rotate(-90 315.504 208.395)" fill="white"/>
<rect x="296.306" y="208.027" width="49.6362" height="7.75174" rx="3.87587" transform="rotate(-90 296.306 208.027)" fill="white"/>
<rect x="494.927" y="211.205" width="21.7352" height="8.07306" rx="4.03653" transform="rotate(-90 494.927 211.205)" fill="#444242"/>
<rect x="475.676" y="211.205" width="31.0502" height="8.07306" rx="4.03653" transform="rotate(-90 475.676 211.205)" fill="#444242"/>
<rect x="456.738" y="211.08" width="41.5473" height="7.88252" rx="3.94126" transform="rotate(-90 456.738 211.08)" fill="#444242"/>
<rect x="437.549" y="211.08" width="49.2685" height="7.88252" rx="3.94126" transform="rotate(-90 437.549 211.08)" fill="#444242"/>
<rect x="418.359" y="210.344" width="57.725" height="7.88252" rx="3.94126" transform="rotate(-90 418.359 210.344)" fill="#444242"/>
<rect x="399.169" y="209.607" width="63.6078" height="7.88252" rx="3.94126" transform="rotate(-90 399.169 209.607)" fill="#444242"/>
<rect x="379.98" y="209.607" width="56.9897" height="7.88252" rx="3.94126" transform="rotate(-90 379.98 209.607)" fill="white"/>
<rect x="360.791" y="208.875" width="39.3413" height="7.88252" rx="3.94126" transform="rotate(-90 360.791 208.875)" fill="white"/>
<g filter="url(#filter1_d_368_845)">
<rect x="511.502" y="338.645" width="44.5521" height="20" rx="10" transform="rotate(-135 511.502 338.645)" fill="white"/>
<rect x="560" y="393" width="323" height="17" rx="8.50002" transform="rotate(-90 560 393)" fill="white"/>
<rect x="577" y="393" width="273" height="17" rx="8.50002" transform="rotate(180 577 393)" fill="white"/>
<path d="M567 287C513.428 287 470 330.428 470 384" stroke="white" stroke-width="16"/>
</g>
</g>
<defs>
<filter id="filter0_d_368_845" x="227.336" y="214" width="286.75" height="46.3203" filterUnits="userSpaceOnUse" color-interpolation-filters="sRGB">
<feFlood flood-opacity="0" result="BackgroundImageFix"/>
<feColorMatrix in="SourceAlpha" type="matrix" values="0 0 0 0 0 0 0 0 0 0 0 0 0 0 0 0 0 0 127 0" result="hardAlpha"/>
<feOffset dy="4"/>
<feGaussianBlur stdDeviation="2"/>
<feComposite in2="hardAlpha" operator="out"/>
<feColorMatrix type="matrix" values="0 0 0 0 0 0 0 0 0 0 0 0 0 0 0 0 0 0 0.25 0"/>
<feBlend mode="normal" in2="BackgroundImageFix" result="effect1_dropShadow_368_845"/>
<feBlend mode="normal" in="SourceGraphic" in2="effect1_dropShadow_368_845" result="shape"/>
</filter>
<filter id="filter1_d_368_845" x="304" y="70" width="283" height="333" filterUnits="userSpaceOnUse" color-interpolation-filters="sRGB">
<feFlood flood-opacity="0" result="BackgroundImageFix"/>
<feColorMatrix in="SourceAlpha" type="matrix" values="0 0 0 0 0 0 0 0 0 0 0 0 0 0 0 0 0 0 127 0" result="hardAlpha"/>
<feOffset dx="10" dy="10"/>
<feComposite in2="hardAlpha" operator="out"/>
<feColorMatrix type="matrix" values="0 0 0 0 0.266667 0 0 0 0 0.258824 0 0 0 0 0.258824 0 0 0 1 0"/>
<feBlend mode="normal" in2="BackgroundImageFix" result="effect1_dropShadow_368_845"/>
<feBlend mode="normal" in="SourceGraphic" in2="effect1_dropShadow_368_845" result="shape"/>
</filter>
<clipPath id="clip0_368_845">
<rect width="733" height="496" fill="white"/>
</clipPath>
</defs>
</svg>
