<svg width="733" height="496" viewBox="0 0 733 496" fill="none" xmlns="http://www.w3.org/2000/svg">
<g clip-path="url(#clip0_368_1246)">
<rect width="733" height="496" fill="#6ACBF4"/>
<g filter="url(#filter0_d_368_1246)">
<path d="M258.77 283.998H252.91V255.561H258.77V283.998ZM265.469 264.291L262.812 262.748C263.932 260.99 264.512 259.174 264.551 257.299V253.998H269.043V257.025C269.043 258.197 268.717 259.467 268.066 260.834C267.415 262.201 266.549 263.354 265.469 264.291ZM277.93 262.865L278.105 265.229C279.603 263.393 281.628 262.475 284.18 262.475C286.901 262.475 288.77 263.549 289.785 265.697C291.27 263.549 293.385 262.475 296.133 262.475C298.424 262.475 300.13 263.145 301.25 264.486C302.37 265.814 302.93 267.82 302.93 270.502V283.998H297.266V270.521C297.266 269.324 297.031 268.451 296.562 267.904C296.094 267.344 295.267 267.064 294.082 267.064C292.389 267.064 291.217 267.872 290.566 269.486L290.586 283.998H284.941V270.541C284.941 269.317 284.701 268.432 284.219 267.885C283.737 267.338 282.917 267.064 281.758 267.064C280.156 267.064 278.997 267.729 278.281 269.057V283.998H272.637V262.865H277.93ZM333.672 278.139H323.398L321.445 283.998H315.215L325.801 255.561H331.23L341.875 283.998H335.645L333.672 278.139ZM324.98 273.393H332.09L328.516 262.748L324.98 273.393ZM369.238 276.537C369.238 275.43 368.848 274.584 368.066 273.998C367.285 273.399 365.879 272.774 363.848 272.123C361.816 271.459 360.208 270.808 359.023 270.17C355.794 268.425 354.18 266.075 354.18 263.119C354.18 261.583 354.609 260.215 355.469 259.018C356.341 257.807 357.585 256.863 359.199 256.186C360.827 255.508 362.65 255.17 364.668 255.17C366.699 255.17 368.509 255.541 370.098 256.283C371.686 257.012 372.917 258.048 373.789 259.389C374.674 260.73 375.117 262.253 375.117 263.959H369.258C369.258 262.657 368.848 261.648 368.027 260.932C367.207 260.202 366.055 259.838 364.57 259.838C363.138 259.838 362.025 260.144 361.23 260.756C360.436 261.355 360.039 262.149 360.039 263.139C360.039 264.063 360.501 264.838 361.426 265.463C362.363 266.088 363.737 266.674 365.547 267.221C368.88 268.223 371.309 269.467 372.832 270.951C374.355 272.436 375.117 274.285 375.117 276.498C375.117 278.959 374.186 280.893 372.324 282.299C370.462 283.692 367.956 284.389 364.805 284.389C362.617 284.389 360.625 283.992 358.828 283.197C357.031 282.39 355.658 281.29 354.707 279.896C353.77 278.503 353.301 276.889 353.301 275.053H359.18C359.18 278.191 361.055 279.76 364.805 279.76C366.198 279.76 367.285 279.48 368.066 278.92C368.848 278.347 369.238 277.553 369.238 276.537ZM385.488 257.67V262.865H389.102V267.006H385.488V277.553C385.488 278.334 385.638 278.894 385.938 279.232C386.237 279.571 386.81 279.74 387.656 279.74C388.281 279.74 388.835 279.695 389.316 279.604V283.881C388.21 284.219 387.07 284.389 385.898 284.389C381.94 284.389 379.922 282.39 379.844 278.393V267.006H376.758V262.865H379.844V257.67H385.488ZM404.902 281.85C403.509 283.542 401.582 284.389 399.121 284.389C396.855 284.389 395.124 283.738 393.926 282.436C392.741 281.133 392.135 279.226 392.109 276.713V262.865H397.754V276.518C397.754 278.718 398.757 279.818 400.762 279.818C402.676 279.818 403.991 279.154 404.707 277.826V262.865H410.371V283.998H405.059L404.902 281.85ZM413.75 273.275C413.75 269.981 414.486 267.357 415.957 265.404C417.441 263.451 419.466 262.475 422.031 262.475C424.089 262.475 425.788 263.243 427.129 264.779V253.998H432.793V283.998H427.695L427.422 281.752C426.016 283.51 424.206 284.389 421.992 284.389C419.505 284.389 417.507 283.412 415.996 281.459C414.499 279.493 413.75 276.765 413.75 273.275ZM419.395 273.686C419.395 275.665 419.74 277.182 420.43 278.236C421.12 279.291 422.122 279.818 423.438 279.818C425.182 279.818 426.413 279.083 427.129 277.611V269.271C426.426 267.8 425.208 267.064 423.477 267.064C420.755 267.064 419.395 269.271 419.395 273.686ZM446.895 284.389C443.796 284.389 441.27 283.438 439.316 281.537C437.376 279.636 436.406 277.104 436.406 273.939V273.393C436.406 271.27 436.816 269.376 437.637 267.709C438.457 266.029 439.616 264.74 441.113 263.842C442.624 262.93 444.342 262.475 446.27 262.475C449.16 262.475 451.432 263.386 453.086 265.209C454.753 267.032 455.586 269.617 455.586 272.963V275.268H442.129C442.311 276.648 442.858 277.755 443.77 278.588C444.694 279.421 445.859 279.838 447.266 279.838C449.44 279.838 451.139 279.05 452.363 277.475L455.137 280.58C454.29 281.778 453.145 282.715 451.699 283.393C450.254 284.057 448.652 284.389 446.895 284.389ZM446.25 267.045C445.13 267.045 444.219 267.423 443.516 268.178C442.826 268.933 442.383 270.014 442.188 271.42H450.039V270.971C450.013 269.721 449.674 268.757 449.023 268.08C448.372 267.39 447.448 267.045 446.25 267.045ZM464.004 262.865L464.18 265.307C465.69 263.419 467.715 262.475 470.254 262.475C472.493 262.475 474.16 263.132 475.254 264.447C476.348 265.762 476.908 267.729 476.934 270.346V283.998H471.289V270.482C471.289 269.285 471.029 268.419 470.508 267.885C469.987 267.338 469.121 267.064 467.91 267.064C466.322 267.064 465.13 267.742 464.336 269.096V283.998H458.691V262.865H464.004ZM487.988 257.67V262.865H491.602V267.006H487.988V277.553C487.988 278.334 488.138 278.894 488.438 279.232C488.737 279.571 489.31 279.74 490.156 279.74C490.781 279.74 491.335 279.695 491.816 279.604V283.881C490.71 284.219 489.57 284.389 488.398 284.389C484.44 284.389 482.422 282.39 482.344 278.393V267.006H479.258V262.865H482.344V257.67H487.988Z" fill="white"/>
</g>
<rect x="350.044" y="252.146" width="145.246" height="35.1392" fill="#8A88FD" fill-opacity="0.24"/>
<ellipse cx="349.149" cy="295.952" rx="6.1486" ry="5.78981" fill="#6B8CFB"/>
<rect x="349.052" y="251.828" width="2.2005" height="41.4418" fill="#6B8CFB"/>
<ellipse rx="6.87656" ry="6.47527" transform="matrix(1 0 0 -1 495.124 242.476)" fill="#6B8CFB"/>
<rect width="2.2005" height="41.4418" transform="matrix(1 0 0 -1 494.299 287.285)" fill="#6B8CFB"/>
<path d="M103 414C103 402.954 111.954 394 123 394H310V509H103V414Z" fill="white"/>
<path d="M103 337C103 325.954 111.954 317 123 317H246.404V382H103V337Z" fill="white"/>
<path d="M103 289C103 277.954 111.954 269 123 269H206V305H103V289Z" fill="white"/>
<path d="M632 414C632 402.954 623.046 394 612 394H425V509H632V414Z" fill="white"/>
<path d="M632 337C632 325.954 623.046 317 612 317H488.596V382H632V337Z" fill="white"/>
<path d="M632 289C632 277.954 623.046 269 612 269H529V305H632V289Z" fill="white"/>
<path d="M218.518 58.1647C216.638 40.4434 230.53 25 248.351 25H495.17C513.045 25 526.955 40.5338 524.988 58.3006L511.194 182.917H231.752L218.518 58.1647Z" fill="white"/>
<rect x="234.907" y="47.8789" width="274.829" height="179.121" fill="#444242"/>
<rect x="250" y="71" width="155.443" height="21.9751" rx="10.9876" fill="white"/>
<rect x="250" y="103.666" width="244.268" height="21.9751" rx="10.9876" fill="white"/>
<rect x="250" y="136.332" width="155.443" height="21.9751" rx="10.9876" fill="white"/>
<rect x="250" y="168.998" width="155.443" height="21.9751" rx="10.9876" fill="white"/>
</g>
<defs>
<filter id="filter0_d_368_1246" x="248.91" y="253.998" width="246.906" height="38.3906" filterUnits="userSpaceOnUse" color-interpolation-filters="sRGB">
<feFlood flood-opacity="0" result="BackgroundImageFix"/>
<feColorMatrix in="SourceAlpha" type="matrix" values="0 0 0 0 0 0 0 0 0 0 0 0 0 0 0 0 0 0 127 0" result="hardAlpha"/>
<feOffset dy="4"/>
<feGaussianBlur stdDeviation="2"/>
<feComposite in2="hardAlpha" operator="out"/>
<feColorMatrix type="matrix" values="0 0 0 0 0 0 0 0 0 0 0 0 0 0 0 0 0 0 0.25 0"/>
<feBlend mode="normal" in2="BackgroundImageFix" result="effect1_dropShadow_368_1246"/>
<feBlend mode="normal" in="SourceGraphic" in2="effect1_dropShadow_368_1246" result="shape"/>
</filter>
<clipPath id="clip0_368_1246">
<rect width="733" height="496" fill="white"/>
</clipPath>
</defs>
</svg>
